<svg width="15" height="15" viewBox="0 0 15 15" fill="none" xmlns="http://www.w3.org/2000/svg">
<g clip-path="url(#clip0_1921_843)">
<path d="M5.83332 0.208374C7.26991 0.208374 8.64766 0.779057 9.66348 1.79488C10.6793 2.8107 11.25 4.18845 11.25 5.62504C11.25 6.96671 10.7583 8.20004 9.94999 9.15004L10.175 9.37504H10.8333L15 13.5417L13.75 14.7917L9.58332 10.625V9.96671L9.35832 9.74171C8.40832 10.55 7.17499 11.0417 5.83332 11.0417C4.39673 11.0417 3.01898 10.471 2.00316 9.4552C0.987339 8.43938 0.416656 7.06163 0.416656 5.62504C0.416656 4.18845 0.987339 2.8107 2.00316 1.79488C3.01898 0.779057 4.39673 0.208374 5.83332 0.208374ZM5.83332 1.87504C3.74999 1.87504 2.08332 3.54171 2.08332 5.62504C2.08332 7.70837 3.74999 9.37504 5.83332 9.37504C7.91666 9.37504 9.58332 7.70837 9.58332 5.62504C9.58332 3.54171 7.91666 1.87504 5.83332 1.87504Z" fill="white"/>
</g>
<defs>
<clipPath id="clip0_1921_843">
<rect width="14.5833" height="14.5833" fill="white" transform="translate(0.416656 0.208374)"/>
</clipPath>
</defs>
</svg>
